<svg width="129" height="44" viewBox="0 0 129 44" xmlns="http://www.w3.org/2000/svg">
  <path d="M123.47 0A5.55 5.55 0 0 1 129 5.34v33.1c0 3-2.36 5.44-5.32 5.56H5.53A5.55 5.55 0 0 1 0 38.66V5.56C0 2.56 2.36.12 5.32 0h118.15zm0 1H5.53A4.55 4.55 0 0 0 1 5.35v33.09A4.55 4.55 0 0 0 5.32 43h118.15a4.55 4.55 0 0 0 4.53-4.35V5.56A4.55 4.55 0 0 0 123.68 1h-.21zM75.03 23.63l-1.2.68h-1.17l.14.12.11.1.11.1a3 3 0 0 1-.13 4.52l-.16.13-.23.2a.16.16 0 0 0-.08.06l-.1.1-.11.11c-.17.2-.32.41-.32.7 0 .31.15.52.32.67l.08.08.09.07.68.53.25.21.17.15.15.14c.57.54 1 1.15 1 2.14 0 1.77-1.7 3.56-4.94 3.56-2.72 0-4.04-1.3-4.04-2.7 0-.68.34-1.64 1.45-2.3a6.73 6.73 0 0 1 2.77-.8l.26-.02.24-.02.32-.02-.1-.14a1.8 1.8 0 0 1-.47-1.15c0-.25.06-.42.13-.59l.06-.14c-.2.02-.41.04-.6.04-2 0-3.12-1.5-3.12-2.96 0-.87.4-1.83 1.2-2.53a5.04 5.04 0 0 1 3.25-1.04h4zM20 28.66l3.6 3.28-10 5.47a2.49 2.49 0 0 1-2.22.07l-.2-.1L20 28.66zm51 4h-.15l-.21.01-.23.02-.26.03-.2.02-.3.05-.2.04c-.18.04-.35.08-.52.14l-.18.07-.11.04-.12.06c-.52.25-1.2.75-1.2 1.77 0 1.34 1.3 2.3 3.3 2.3 1.8 0 2.77-.87 2.77-2.04 0-.77-.4-1.25-1.31-1.94l-.23-.17-.38-.28-.13-.1a2.44 2.44 0 0 0-.35-.02zM10.33 19.84l8.77 8.01-8.8 8.7a2.2 2.2 0 0 1-.3-.92l-.01-.2V21c0-.42.12-.81.34-1.16zm102.19 3.73l3.21 7.73 3.18-7.73H120l-4.57 10.8c-.47 1.1-1.22 1.64-2.24 1.64-.31 0-.72-.06-.96-.13l.17-.88c.2.1.55.15.77.15.58 0 .99-.24 1.35-1.08l.7-1.58-3.75-8.92h1.06zm-17-.22c2.36 0 3.95 1.8 3.95 4.63 0 2.82-1.6 4.66-3.95 4.66a3.77 3.77 0 0 1-3.07-1.65v4.8h-.95V23.57h.95v1.4a3.78 3.78 0 0 1 3.07-1.62zm-55.34-3.71a10.27 10.27 0 0 1 3.94.82l.19.09.17.09.15.09.14.08.13.08.21.15.1.06-1.47 1.4-.62.14.44-.7-.21-.22-.13-.11-.13-.12-.15-.12a4.81 4.81 0 0 0-3.15-1.1c-2.78 0-4.88 2.12-4.88 5.22 0 3.32 2.4 6.45 6.24 6.45.8 0 1.33-.12 1.76-.26l.17-.06.16-.06.15-.06v-2.85l-2.66.14 1.4-.76h3.74l-.45.44c-.13.1-.14.14-.18.29v.05l-.02.26v.2l-.01.34v2.15l-2.52.58-.67.1c-.77.12-1.49.2-2.24.2-4.21 0-6.17-2.69-6.62-5.23l-.03-.22-.03-.2c-.03-.26-.04-.5-.04-.74 0-3.43 2.63-6.61 7.12-6.61zm66.83 3.7c1.03 0 1.87.26 2.5.75.64.5.95 1.21.95 2.15v4.36a6.95 6.95 0 0 0 .25 1.79h-1.1l-.03-.15-.05-.28-.03-.13-.04-.24a5.4 5.4 0 0 1-.04-.7 3.7 3.7 0 0 1-1.38 1.2c-.6.32-1.15.47-1.92.47a3.1 3.1 0 0 1-2.16-.69 2.42 2.42 0 0 1-.77-1.88c0-.8.37-1.44 1.12-1.93.74-.5 1.7-.74 2.89-.74h2.22v-1.1c0-.63-.22-1.13-.65-1.5a2.75 2.75 0 0 0-1.82-.54c-.71 0-1.3.17-1.74.5a1.5 1.5 0 0 0-.66 1.23h-.97l-.02-.04c-.04-.67.27-1.26.91-1.77.65-.5 1.5-.76 2.54-.76zm-23.43.05c.67 0 1.37.17 1.93.53a3.02 3.02 0 0 1 1.2 1.5l.04.13.03.06.05.17-4.42 1.8-1.45.1c.47 2.4 2.09 3.8 3.87 3.8.84 0 1.48-.26 2.05-.54l.14-.07h.03c.02-.01.03 0-.02.04l-.9.85c-.2.11-.41.25-.62.34-.57.26-1.16.34-1.69.36h-.37l-.18-.01a3.83 3.83 0 0 1-2.08-.73 4.88 4.88 0 0 1-1.92-3.97 4.27 4.27 0 0 1 4.3-4.36zm-32.3 0a4.4 4.4 0 0 1 4.48 4.45A4.6 4.6 0 0 1 51 32.42a4.44 4.44 0 0 1-4.59-4.45c0-2.47 2.01-4.58 4.87-4.58zm10 0a4.4 4.4 0 0 1 4.5 4.45A4.6 4.6 0 0 1 61 32.42a4.44 4.44 0 0 1-4.58-4.45c0-2.47 2-4.58 4.87-4.58zm40.44-3.2v12.23h-.95V20.2h.95zm-23.1-1.33c-.58.34-.75.55-.83 1.2v10.86c.02.57.17.68.68.74h.07l.96.1-.7.41h-3.3l.27-.35c.18-.25.23-.35.24-.59V19.55h-1.47l1.4-.69h2.7zM60.8 23.97c-.62 0-1.25.25-1.7.64-.73.66-.86 1.5-.86 2.3v.3l.02.21.02.22.01.1.03.23c.28 1.78 1.23 3.88 3.12 3.88a2.4 2.4 0 0 0 1.92-.96 3.4 3.4 0 0 0 .56-2.27l-.01-.18v-.1l-.03-.2-.02-.2-.03-.21-.04-.22-.02-.1-.05-.23c-.35-1.55-1.23-3.2-2.92-3.2zm-10 0a2.6 2.6 0 0 0-1.7.64c-.7.63-.85 1.42-.86 2.2v.4l.02.21c0 .07 0 .14.02.22l.02.21.04.23c.3 1.75 1.25 3.77 3.1 3.77a2.4 2.4 0 0 0 1.9-.96 3.42 3.42 0 0 0 .57-2.27v-.18l-.02-.1-.01-.2-.03-.2-.03-.21-.03-.22c-.3-1.63-1.2-3.54-3-3.54zm44.57.24c-1.23 0-2.4.97-2.9 1.8v3.92c.5.84 1.67 1.84 2.9 1.84 1.97 0 3.08-1.64 3.08-3.79 0-2.14-1.1-3.77-3.08-3.77zm14.06 3.86h-2.23c-.85 0-1.56.2-2.11.57-.56.38-.84.84-.84 1.38 0 .5.18.9.53 1.21.36.31.85.46 1.47.46.8 0 1.38-.18 1.98-.53.59-.36.99-.82 1.2-1.39v-1.7zM23.99 24.7l2.8 1.53a2.23 2.23 0 1 1 .16 3.87l-.15.1-2.1 1.14-3.86-3.52L24 24.7zm45.98-.44c-.48 0-1.01.24-1.31.62-.32.4-.42.9-.42 1.4l.03.43.03.19c.19 1.22.92 2.73 2.3 2.73.46 0 .97-.23 1.27-.53.36-.36.45-.83.47-1.17v-.21c0-1.35-.8-3.46-2.37-3.46zM83.06 24h-.16l-.12.02c-.77.12-1.9.79-1.9 2.6 0 .32.04.66.06 1l3.43-1.5c.35-.12.54-.23.54-.5 0-.75-.85-1.62-1.86-1.62zM13.4 18.93l.18.09 9.3 5.08-2.93 2.91-8.75-7.99a2.5 2.5 0 0 1 2.2-.09zM36.18 7c1.18 0 1.96.56 2.44 1.25l-.87.5c-.32-.46-.9-.8-1.57-.8-1.2 0-2.09.9-2.09 2.17 0 1.25.9 2.18 2.1 2.18.61 0 1.15-.28 1.43-.55v-.93H35.8V9.9h2.87v2.25a3.27 3.27 0 0 1-2.49 1.1c-1.76 0-3.18-1.23-3.18-3.12C33 8.22 34.42 7 36.18 7zm30.95 0a3 3 0 0 1 3.1 3.12 3 3 0 0 1-3.1 3.12 3 3 0 0 1-3.1-3.12A3 3 0 0 1 67.13 7zm-22.99.1v.93h-3.09V9.6h3.03v.93h-3.03v1.68h3.09v.93h-4.15V7.1h4.15zm5.84 0v.93h-1.83v5.1h-1.07v-5.1h-1.83V7.1h4.73zm4.76 0v6.03h-1.06V7.1h1.06zm5.86 0v.93h-1.83v5.1H57.7v-5.1h-1.83V7.1h4.73zm11.97 0l3.1 4.18V7.1h1.06v6.03H75.7l-3.16-4.31v4.3h-1.07V7.1h1.1zm-5.44.84c-1.22 0-2 .93-2 2.18 0 1.24.78 2.18 2 2.18s2.01-.94 2.01-2.18c0-1.25-.79-2.18-2-2.18z" fill="#8A9AA7"/>
</svg>
