<svg width="129" height="44" viewBox="0 0 129 44" xmlns="http://www.w3.org/2000/svg">
  <path d="M123.47 0A5.55 5.55 0 0 1 129 5.34v33.1c0 3-2.36 5.44-5.32 5.56H5.53A5.55 5.55 0 0 1 0 38.66V5.56C0 2.56 2.36.12 5.32 0h118.15zm0 1H5.53A4.55 4.55 0 0 0 1 5.35v33.09A4.55 4.55 0 0 0 5.32 43h118.15a4.55 4.55 0 0 0 4.53-4.35V5.56A4.55 4.55 0 0 0 123.68 1h-.21zm-66.8 21.72c1.09 0 2 .43 2.73 1.3.73.87 1.1 2.01 1.1 3.43a5.3 5.3 0 0 1-1.28 3.75 3.73 3.73 0 0 1-2.84 1.22c-1.22 0-2.1-.44-2.63-1.32h-.04V36h-2.06V25.97c0-1-.03-2.01-.08-3.06h1.81l.12 1.47h.04a3.43 3.43 0 0 1 3.12-1.66zm10.65 0c1.09 0 2 .43 2.73 1.3.73.87 1.1 2.01 1.1 3.43a5.3 5.3 0 0 1-1.28 3.75 3.72 3.72 0 0 1-2.84 1.22c-1.22 0-2.1-.44-2.63-1.32h-.04V36h-2.05V25.97c0-1-.03-2.01-.08-3.06h1.8l.12 1.47h.04a3.42 3.42 0 0 1 3.13-1.66zm-42.6-8.7l.3.01c.8.03 3.08.32 4.55 2.47a5.65 5.65 0 0 0-2.69 4.75 5.47 5.47 0 0 0 3.33 5.04c-.02.09-.51 1.8-1.73 3.54-1.02 1.53-2.1 3.02-3.79 3.05-1.65.04-2.2-.97-4.1-.97-1.9 0-2.5.94-4.08 1.01-1.62.06-2.85-1.63-3.9-3.15-2.12-3.1-3.77-8.73-1.56-12.56a6.06 6.06 0 0 1 5.1-3.12c1.62-.04 3.12 1.1 4.12 1.1.87 0 2.47-1.1 4.17-1.17h.29zm70.92 8.7a4.2 4.2 0 0 1 3.28 1.36 4.9 4.9 0 0 1 1.18 3.4c0 1.43-.4 2.6-1.22 3.52a4.35 4.35 0 0 1-3.39 1.42 4.13 4.13 0 0 1-3.25-1.36 4.96 4.96 0 0 1-1.21-3.42c0-1.44.42-2.62 1.25-3.54a4.31 4.31 0 0 1 3.36-1.38zm-15.99-3.6c1.17 0 2.14.2 2.92.62l-.52 1.68c-.72-.4-1.54-.6-2.46-.6-.72 0-1.29.19-1.7.54-.33.32-.5.71-.5 1.17 0 .51.19.93.58 1.26.35.31.97.64 1.87 1a6.4 6.4 0 0 1 2.44 1.57c.52.6.78 1.34.78 2.23 0 1.1-.38 2-1.14 2.68-.84.76-2 1.13-3.5 1.13a6.1 6.1 0 0 1-3.33-.8l.48-1.72c.9.54 1.9.82 2.97.82a2.8 2.8 0 0 0 1.82-.53c.43-.35.64-.82.64-1.4 0-.53-.17-.97-.53-1.33a4.96 4.96 0 0 0-1.77-1c-2.25-.84-3.38-2.07-3.38-3.7 0-1.05.4-1.92 1.19-2.6a4.65 4.65 0 0 1 3.14-1.02zm7.95 1.47v2.32h2.27v1.55H87.6v4.52c0 1.14.4 1.72 1.2 1.72.37 0 .67-.03.91-.1l.06 1.57c-.4.15-.94.23-1.6.23-.81 0-1.45-.25-1.9-.75-.46-.5-.7-1.33-.7-2.5v-4.7h-1.34v-1.54h1.35v-1.7l2.02-.62zm24.55 2.11c1.34 0 2.35.5 3.03 1.5.55.78.82 1.76.82 2.92 0 .37-.02.68-.08.94h-6.17c.02.92.32 1.62.9 2.1a3 3 0 0 0 2.02.65 6.8 6.8 0 0 0 2.5-.44l.32 1.44a7.7 7.7 0 0 1-3.1.57 4.49 4.49 0 0 1-3.4-1.27 4.71 4.71 0 0 1-1.22-3.41c0-1.4.38-2.58 1.14-3.5.8-1 1.88-1.5 3.24-1.5zM45.7 19.31l4.16 12.9h-2.2l-1.2-3.79H42.3l-1.14 3.79H39l4.14-12.9h2.55zm60.58 3.4c.19 0 .36.02.51.05v1.97c-.2-.04-.42-.06-.64-.06-.73 0-1.29.27-1.68.82a3.1 3.1 0 0 0-.52 1.84v4.88h-2.05l.02-6.37c0-1.07-.03-2.05-.08-2.93h1.8l.07 1.78h.05a3.2 3.2 0 0 1 1.03-1.47c.46-.34.96-.5 1.49-.5zm-10.71 1.52c-.83 0-1.46.37-1.89 1.11a4.28 4.28 0 0 0-.55 2.25c0 .86.18 1.6.55 2.2a2.07 2.07 0 0 0 1.87 1.12c.79 0 1.4-.38 1.85-1.13.38-.63.57-1.37.57-2.23 0-.86-.18-1.6-.55-2.2a2.03 2.03 0 0 0-1.85-1.12zm-28.92.13a2.33 2.33 0 0 0-2.19 1.84c-.06.26-.1.47-.1.63v1.55c0 .68.21 1.25.62 1.72.41.46.95.7 1.61.7.78 0 1.38-.3 1.81-.9.44-.6.65-1.4.65-2.38 0-.9-.2-1.65-.6-2.24a2.1 2.1 0 0 0-1.8-.92zm-10.65 0c-.51 0-.97.17-1.39.51-.41.34-.68.78-.8 1.33-.07.26-.1.47-.1.63v1.55c0 .68.2 1.25.62 1.72.41.46.95.7 1.6.7.78 0 1.39-.3 1.82-.9.43-.6.65-1.4.65-2.38 0-.9-.2-1.65-.61-2.24a2.1 2.1 0 0 0-1.8-.92zm-11.63-3.33h-.04l-.04.18c-.11.48-.28 1.13-.49 1.94l-.08.31-1.07 3.37h3.45l-1.08-3.37-.03-.07a42.2 42.2 0 0 1-.62-2.36zm67.63 3.1c-.68 0-1.22.28-1.64.85a3.1 3.1 0 0 0-.61 1.6h4.29a2.81 2.81 0 0 0-.4-1.58 1.8 1.8 0 0 0-1.64-.87zM83.26 8.03v5.44c0 .44.02.85.04 1.23h-.9l-.05-.74h-.02c-.29.56-.78.84-1.46.84-.55 0-1.01-.22-1.37-.65-.36-.43-.54-1-.54-1.68 0-.74.2-1.34.59-1.8.38-.42.84-.64 1.4-.64.61 0 1.04.21 1.28.62h.02V8.03h1.01zm-7.56 2c1.19 0 1.79.63 1.79 1.9v1.68c0 .45.02.82.06 1.09h-.9l-.08-.53h-.03c-.31.42-.75.63-1.33.63-.43 0-.78-.14-1.04-.41a1.3 1.3 0 0 1-.36-.93c0-.56.24-.99.7-1.28.47-.3 1.12-.44 1.97-.43v-.09c0-.6-.32-.9-.95-.9-.45 0-.84.11-1.19.34l-.2-.67c.42-.26.94-.4 1.56-.4zm-26.81 0c.66 0 1.2.23 1.6.67.4.43.59 1 .59 1.67 0 .7-.2 1.28-.6 1.73-.42.47-.98.7-1.67.7-.67 0-1.2-.22-1.6-.67-.4-.44-.59-1-.59-1.68 0-.7.2-1.29.61-1.74.41-.45.96-.68 1.66-.68zm21.57 0c.67 0 1.2.23 1.61.67.39.43.58 1 .58 1.67 0 .7-.2 1.28-.6 1.73-.41.47-.97.7-1.66.7-.67 0-1.2-.22-1.6-.67-.4-.44-.6-1-.6-1.68 0-.7.21-1.29.62-1.74.4-.45.96-.68 1.65-.68zm19.3 0c.67 0 1.2.23 1.61.67.39.43.58 1 .58 1.67 0 .7-.2 1.28-.6 1.73-.42.47-.97.7-1.66.7-.67 0-1.2-.22-1.6-.67-.4-.44-.6-1-.6-1.68 0-.7.21-1.29.62-1.74.4-.45.96-.68 1.65-.68zM103.1 9v1.14h1.11v.76h-1.11v2.22c0 .56.2.84.59.84.18 0 .33-.01.45-.04l.03.77c-.2.07-.47.11-.8.11-.39 0-.7-.12-.93-.37-.22-.24-.33-.65-.33-1.23v-2.3h-.67v-.76h.67V9.3l.99-.3zm10.1 1.04c.66 0 1.15.24 1.49.73.27.39.4.87.4 1.44 0 .18-.01.33-.03.46H112c.02.45.16.8.44 1.03.26.21.59.32 1 .32.44 0 .85-.07 1.22-.22l.16.71a3.8 3.8 0 0 1-1.53.28c-.7 0-1.26-.2-1.66-.62a2.3 2.3 0 0 1-.6-1.68c0-.69.18-1.26.56-1.72.4-.49.92-.73 1.6-.73zM41.98 8.3c1.1 0 1.93.24 2.5.73.63.54.94 1.32.94 2.34 0 1.14-.34 2-1.02 2.57-.63.54-1.53.8-2.69.8-.57 0-1.06-.02-1.48-.07V8.44c.54-.08 1.12-.13 1.75-.13zm20.34 1.72c.43 0 .78.14 1.06.42.35.33.53.84.53 1.5v2.75H62.9v-2.62c0-.8-.3-1.21-.92-1.21-.3 0-.54.11-.73.33-.19.22-.28.49-.28.79v2.7h-1.01v-3.26c0-.4-.02-.83-.04-1.3h.89l.04.71h.03c.12-.22.3-.4.53-.55.27-.17.58-.26.91-.26zm-9.21.1l.51 2.17c.13.51.23 1 .31 1.47h.02c.08-.39.2-.87.38-1.46l.64-2.18h.83l.62 2.13c.14.52.27 1.02.36 1.5h.03c.07-.46.17-.96.3-1.5l.56-2.13h1l-1.43 4.57h-.93l-.59-1.99c-.15-.5-.27-.99-.36-1.47h-.02c-.09.5-.21.99-.37 1.47l-.62 1.99h-.94l-1.34-4.57h1.04zm13.59-2.1v6.67h-1.01V8.03h1zm29.11 2c.42 0 .78.14 1.06.42.35.33.52.84.52 1.5v2.75h-1v-2.62c0-.8-.31-1.21-.93-1.21a.9.9 0 0 0-.73.33c-.18.22-.28.49-.28.79v2.7h-1v-3.26c0-.4-.02-.83-.04-1.3h.88l.05.71h.03a1.6 1.6 0 0 1 1.44-.81zm10.8-2v2.75h.03c.31-.5.77-.75 1.36-.75.42 0 .77.14 1.04.42.35.34.52.85.52 1.53v2.72h-1.01v-2.6c0-.82-.3-1.23-.92-1.23-.47 0-.79.24-.97.71-.03.1-.04.22-.04.37v2.75h-1.01V8.03h1zm-16.88 2.75c-.41 0-.72.18-.93.54-.18.3-.27.67-.27 1.1 0 .43.09.79.27 1.09.22.36.52.55.92.55.38 0 .69-.19.9-.56.19-.3.28-.67.28-1.1 0-.41-.09-.78-.27-1.08a1 1 0 0 0-.9-.54zM76.5 12.42c-1.12-.02-1.67.29-1.67.92 0 .24.06.42.2.54.12.12.29.18.48.18a1 1 0 0 0 .62-.21.87.87 0 0 0 .37-.72v-.7zm-6.07-1.64c-.41 0-.72.18-.93.54-.18.3-.27.67-.27 1.1 0 .43.09.79.27 1.09.22.36.52.55.92.55.38 0 .68-.19.9-.56.2-.3.28-.67.28-1.1 0-.41-.09-.78-.27-1.08a1 1 0 0 0-.9-.54zm-21.58 0c-.4 0-.72.18-.93.54-.18.3-.27.67-.27 1.1 0 .43.1.79.27 1.09.22.36.53.55.92.55s.69-.19.9-.56c.2-.3.29-.67.29-1.1 0-.41-.1-.78-.27-1.08a1 1 0 0 0-.91-.54zm32.33.04c-.38 0-.67.15-.89.46-.21.3-.32.68-.32 1.15 0 .45.1.82.3 1.1.23.3.52.45.9.45a1 1 0 0 0 .8-.37c.19-.24.28-.51.28-.84v-.76c0-.13 0-.24-.03-.32a1.16 1.16 0 0 0-.36-.62 1 1 0 0 0-.68-.25zm-39.12-1.7c-.32 0-.59.01-.81.06v4.74c.12.02.35.02.68.02.77 0 1.37-.21 1.8-.64.41-.44.62-1.07.62-1.9 0-.73-.19-1.3-.58-1.7-.39-.39-.96-.59-1.71-.59zM25.04 8a5.59 5.59 0 0 1-1.28 4 4.67 4.67 0 0 1-3.69 1.75 5.32 5.32 0 0 1 1.3-3.85A5.65 5.65 0 0 1 25.05 8zm88.08 2.73c-.33 0-.6.14-.8.41-.18.22-.28.49-.3.8h2.1c0-.3-.06-.57-.2-.79a.88.88 0 0 0-.8-.42z" fill="#8A9AA7"/>
</svg>
